<mxfile host="app.diagrams.net" agent="Mozilla/5.0 (Windows NT 10.0; Win64; x64) AppleWebKit/537.36 (KHTML, like Gecko) Chrome/130.0.0.0 Safari/537.36" version="24.8.6">
  <diagram name="Page-1" id="BH4VYB-0Q_087soVqz32">
    <mxGraphModel dx="1293" dy="473" grid="1" gridSize="10" guides="1" tooltips="1" connect="1" arrows="1" fold="1" page="1" pageScale="1" pageWidth="850" pageHeight="1100" math="0" shadow="0">
      <root>
        <mxCell id="0" />
        <mxCell id="1" parent="0" />
        <mxCell id="sCo8nd_l6i58dvjA1Hbq-1" value="" style="rounded=1;whiteSpace=wrap;html=1;" vertex="1" parent="1">
          <mxGeometry x="40" y="90" width="200" height="470" as="geometry" />
        </mxCell>
        <mxCell id="sCo8nd_l6i58dvjA1Hbq-4" value="&lt;font style=&quot;font-size: 20px;&quot;&gt;Data Sources&lt;/font&gt;" style="text;html=1;align=center;verticalAlign=middle;whiteSpace=wrap;rounded=0;" vertex="1" parent="1">
          <mxGeometry x="65" y="100" width="150" height="30" as="geometry" />
        </mxCell>
        <mxCell id="sCo8nd_l6i58dvjA1Hbq-8" value="" style="rounded=0;whiteSpace=wrap;html=1;" vertex="1" parent="1">
          <mxGeometry x="77.5" y="150" width="125" height="150" as="geometry" />
        </mxCell>
        <mxCell id="sCo8nd_l6i58dvjA1Hbq-9" value="&lt;font style=&quot;font-size: 18px;&quot;&gt;Structured&lt;/font&gt;" style="text;html=1;align=center;verticalAlign=middle;whiteSpace=wrap;rounded=0;" vertex="1" parent="1">
          <mxGeometry x="92.5" y="160" width="95" height="30" as="geometry" />
        </mxCell>
        <mxCell id="sCo8nd_l6i58dvjA1Hbq-10" value="&lt;font style=&quot;font-size: 14px;&quot;&gt;CRM&lt;/font&gt;" style="text;html=1;align=center;verticalAlign=middle;whiteSpace=wrap;rounded=0;" vertex="1" parent="1">
          <mxGeometry x="110" y="200" width="60" height="30" as="geometry" />
        </mxCell>
        <mxCell id="sCo8nd_l6i58dvjA1Hbq-11" value="&lt;font style=&quot;font-size: 14px;&quot;&gt;Relational Database&lt;/font&gt;" style="text;html=1;align=center;verticalAlign=middle;whiteSpace=wrap;rounded=0;" vertex="1" parent="1">
          <mxGeometry x="110" y="240" width="60" height="30" as="geometry" />
        </mxCell>
        <mxCell id="sCo8nd_l6i58dvjA1Hbq-12" value="" style="rounded=0;whiteSpace=wrap;html=1;" vertex="1" parent="1">
          <mxGeometry x="72.5" y="360" width="125" height="150" as="geometry" />
        </mxCell>
        <mxCell id="sCo8nd_l6i58dvjA1Hbq-13" value="&lt;font style=&quot;font-size: 18px;&quot;&gt;Semi - structured&lt;/font&gt;" style="text;html=1;align=center;verticalAlign=middle;whiteSpace=wrap;rounded=0;" vertex="1" parent="1">
          <mxGeometry x="88.75" y="380" width="102.5" height="30" as="geometry" />
        </mxCell>
        <mxCell id="sCo8nd_l6i58dvjA1Hbq-14" value="&lt;font style=&quot;font-size: 14px;&quot;&gt;NoSQL (MongoDB)&lt;/font&gt;" style="text;html=1;align=center;verticalAlign=middle;whiteSpace=wrap;rounded=0;" vertex="1" parent="1">
          <mxGeometry x="105" y="450" width="60" height="30" as="geometry" />
        </mxCell>
        <mxCell id="sCo8nd_l6i58dvjA1Hbq-15" value="" style="rounded=1;whiteSpace=wrap;html=1;" vertex="1" parent="1">
          <mxGeometry x="300" y="90" width="200" height="410" as="geometry" />
        </mxCell>
        <mxCell id="sCo8nd_l6i58dvjA1Hbq-16" value="&lt;font style=&quot;font-size: 20px;&quot;&gt;Data Ingestion&lt;/font&gt;" style="text;html=1;align=center;verticalAlign=middle;whiteSpace=wrap;rounded=0;" vertex="1" parent="1">
          <mxGeometry x="325" y="100" width="150" height="30" as="geometry" />
        </mxCell>
        <mxCell id="sCo8nd_l6i58dvjA1Hbq-17" value="" style="rounded=1;whiteSpace=wrap;html=1;" vertex="1" parent="1">
          <mxGeometry x="560" y="90" width="320" height="250" as="geometry" />
        </mxCell>
        <mxCell id="sCo8nd_l6i58dvjA1Hbq-18" value="" style="rounded=1;whiteSpace=wrap;html=1;" vertex="1" parent="1">
          <mxGeometry x="560" y="370" width="320" height="130" as="geometry" />
        </mxCell>
        <mxCell id="sCo8nd_l6i58dvjA1Hbq-19" value="&lt;font style=&quot;font-size: 20px;&quot;&gt;Data Storage &amp;amp; Processing&lt;/font&gt;" style="text;html=1;align=center;verticalAlign=middle;whiteSpace=wrap;rounded=0;" vertex="1" parent="1">
          <mxGeometry x="580" y="100" width="280" height="30" as="geometry" />
        </mxCell>
        <mxCell id="sCo8nd_l6i58dvjA1Hbq-20" value="" style="rounded=0;whiteSpace=wrap;html=1;" vertex="1" parent="1">
          <mxGeometry x="570" y="137.5" width="125" height="175" as="geometry" />
        </mxCell>
        <mxCell id="sCo8nd_l6i58dvjA1Hbq-21" value="" style="rounded=0;whiteSpace=wrap;html=1;" vertex="1" parent="1">
          <mxGeometry x="735" y="137.5" width="125" height="70" as="geometry" />
        </mxCell>
        <mxCell id="sCo8nd_l6i58dvjA1Hbq-22" value="" style="rounded=0;whiteSpace=wrap;html=1;" vertex="1" parent="1">
          <mxGeometry x="735" y="242.5" width="125" height="70" as="geometry" />
        </mxCell>
        <mxCell id="sCo8nd_l6i58dvjA1Hbq-23" value="&lt;font style=&quot;font-size: 20px;&quot;&gt;Analytical Sandboxes&lt;/font&gt;" style="text;html=1;align=center;verticalAlign=middle;whiteSpace=wrap;rounded=0;" vertex="1" parent="1">
          <mxGeometry x="580" y="380" width="280" height="30" as="geometry" />
        </mxCell>
        <mxCell id="sCo8nd_l6i58dvjA1Hbq-24" value="" style="rounded=1;whiteSpace=wrap;html=1;" vertex="1" parent="1">
          <mxGeometry x="300" y="520" width="580" height="40" as="geometry" />
        </mxCell>
        <mxCell id="sCo8nd_l6i58dvjA1Hbq-26" value="" style="rounded=1;whiteSpace=wrap;html=1;" vertex="1" parent="1">
          <mxGeometry x="940" y="90" width="200" height="410" as="geometry" />
        </mxCell>
        <mxCell id="sCo8nd_l6i58dvjA1Hbq-27" value="&lt;font style=&quot;font-size: 20px;&quot;&gt;Data Consumption&lt;/font&gt;" style="text;html=1;align=center;verticalAlign=middle;whiteSpace=wrap;rounded=0;" vertex="1" parent="1">
          <mxGeometry x="952.5" y="100" width="175" height="30" as="geometry" />
        </mxCell>
        <mxCell id="sCo8nd_l6i58dvjA1Hbq-28" value="&lt;font style=&quot;font-size: 18px;&quot;&gt;Data security, governance &amp;amp; monitoring&lt;/font&gt;" style="text;html=1;align=center;verticalAlign=middle;whiteSpace=wrap;rounded=0;" vertex="1" parent="1">
          <mxGeometry x="405" y="525" width="370" height="30" as="geometry" />
        </mxCell>
        <mxCell id="sCo8nd_l6i58dvjA1Hbq-29" value="" style="rounded=0;whiteSpace=wrap;html=1;" vertex="1" parent="1">
          <mxGeometry x="337.5" y="155" width="125" height="120" as="geometry" />
        </mxCell>
        <mxCell id="sCo8nd_l6i58dvjA1Hbq-31" value="" style="rounded=0;whiteSpace=wrap;html=1;" vertex="1" parent="1">
          <mxGeometry x="337.5" y="340" width="125" height="120" as="geometry" />
        </mxCell>
        <mxCell id="sCo8nd_l6i58dvjA1Hbq-33" value="&lt;font style=&quot;font-size: 18px;&quot;&gt;Batch/ Scheduled&lt;/font&gt;" style="text;html=1;align=center;verticalAlign=middle;whiteSpace=wrap;rounded=0;" vertex="1" parent="1">
          <mxGeometry x="352.5" y="200" width="95" height="30" as="geometry" />
        </mxCell>
        <mxCell id="sCo8nd_l6i58dvjA1Hbq-34" value="&lt;font style=&quot;font-size: 18px;&quot;&gt;Real-time Streaming&lt;/font&gt;" style="text;html=1;align=center;verticalAlign=middle;whiteSpace=wrap;rounded=0;" vertex="1" parent="1">
          <mxGeometry x="352.5" y="385" width="95" height="30" as="geometry" />
        </mxCell>
        <mxCell id="sCo8nd_l6i58dvjA1Hbq-35" value="&lt;font style=&quot;font-size: 18px;&quot;&gt;Raw data&lt;/font&gt;" style="text;html=1;align=center;verticalAlign=middle;whiteSpace=wrap;rounded=0;" vertex="1" parent="1">
          <mxGeometry x="585" y="210" width="95" height="30" as="geometry" />
        </mxCell>
        <mxCell id="sCo8nd_l6i58dvjA1Hbq-36" value="&lt;font style=&quot;font-size: 16px;&quot;&gt;Processing the data&lt;/font&gt;" style="text;html=1;align=center;verticalAlign=middle;whiteSpace=wrap;rounded=0;" vertex="1" parent="1">
          <mxGeometry x="750" y="157.5" width="95" height="30" as="geometry" />
        </mxCell>
        <mxCell id="sCo8nd_l6i58dvjA1Hbq-37" value="&lt;font style=&quot;font-size: 16px;&quot;&gt;Processed data&lt;/font&gt;" style="text;html=1;align=center;verticalAlign=middle;whiteSpace=wrap;rounded=0;" vertex="1" parent="1">
          <mxGeometry x="750" y="262.5" width="95" height="30" as="geometry" />
        </mxCell>
        <mxCell id="sCo8nd_l6i58dvjA1Hbq-38" value="" style="rounded=0;whiteSpace=wrap;html=1;" vertex="1" parent="1">
          <mxGeometry x="590" y="420" width="110" height="60" as="geometry" />
        </mxCell>
        <mxCell id="sCo8nd_l6i58dvjA1Hbq-39" value="&lt;font style=&quot;font-size: 16px;&quot;&gt;Data Discovery&lt;/font&gt;" style="text;html=1;align=center;verticalAlign=middle;whiteSpace=wrap;rounded=0;" vertex="1" parent="1">
          <mxGeometry x="597.5" y="435" width="95" height="30" as="geometry" />
        </mxCell>
        <mxCell id="sCo8nd_l6i58dvjA1Hbq-40" value="" style="rounded=0;whiteSpace=wrap;html=1;" vertex="1" parent="1">
          <mxGeometry x="735" y="420" width="110" height="60" as="geometry" />
        </mxCell>
        <mxCell id="sCo8nd_l6i58dvjA1Hbq-41" value="&lt;font style=&quot;font-size: 16px;&quot;&gt;Exploratory Analysis&lt;/font&gt;" style="text;html=1;align=center;verticalAlign=middle;whiteSpace=wrap;rounded=0;" vertex="1" parent="1">
          <mxGeometry x="742.5" y="435" width="95" height="30" as="geometry" />
        </mxCell>
        <mxCell id="sCo8nd_l6i58dvjA1Hbq-42" value="&lt;font style=&quot;font-size: 18px;&quot;&gt;Reporting&lt;/font&gt;" style="text;html=1;align=center;verticalAlign=middle;whiteSpace=wrap;rounded=0;" vertex="1" parent="1">
          <mxGeometry x="992.5" y="170" width="95" height="30" as="geometry" />
        </mxCell>
        <mxCell id="sCo8nd_l6i58dvjA1Hbq-43" value="&lt;font style=&quot;font-size: 18px;&quot;&gt;Data visualisation&lt;/font&gt;" style="text;html=1;align=center;verticalAlign=middle;whiteSpace=wrap;rounded=0;" vertex="1" parent="1">
          <mxGeometry x="965" y="240" width="150" height="30" as="geometry" />
        </mxCell>
        <mxCell id="sCo8nd_l6i58dvjA1Hbq-44" value="&lt;font style=&quot;font-size: 18px;&quot;&gt;Search/ querying&lt;/font&gt;" style="text;html=1;align=center;verticalAlign=middle;whiteSpace=wrap;rounded=0;" vertex="1" parent="1">
          <mxGeometry x="965" y="310" width="150" height="30" as="geometry" />
        </mxCell>
        <mxCell id="sCo8nd_l6i58dvjA1Hbq-45" value="&lt;font style=&quot;font-size: 18px;&quot;&gt;Data warehouse&lt;/font&gt;" style="text;html=1;align=center;verticalAlign=middle;whiteSpace=wrap;rounded=0;" vertex="1" parent="1">
          <mxGeometry x="965" y="380" width="150" height="30" as="geometry" />
        </mxCell>
        <mxCell id="sCo8nd_l6i58dvjA1Hbq-48" value="" style="html=1;shadow=0;dashed=0;align=center;verticalAlign=middle;shape=mxgraph.arrows2.arrow;dy=0.67;dx=20;notch=0;" vertex="1" parent="1">
          <mxGeometry x="230" y="300" width="85" height="20" as="geometry" />
        </mxCell>
        <mxCell id="sCo8nd_l6i58dvjA1Hbq-49" value="" style="html=1;shadow=0;dashed=0;align=center;verticalAlign=middle;shape=mxgraph.arrows2.arrow;dy=0.67;dx=20;notch=0;" vertex="1" parent="1">
          <mxGeometry x="485" y="187.5" width="85" height="20" as="geometry" />
        </mxCell>
        <mxCell id="sCo8nd_l6i58dvjA1Hbq-50" value="" style="html=1;shadow=0;dashed=0;align=center;verticalAlign=middle;shape=mxgraph.arrows2.arrow;dy=0.67;dx=20;notch=0;" vertex="1" parent="1">
          <mxGeometry x="485" y="430" width="85" height="20" as="geometry" />
        </mxCell>
        <mxCell id="sCo8nd_l6i58dvjA1Hbq-53" value="" style="endArrow=none;dashed=1;html=1;rounded=0;" edge="1" parent="1">
          <mxGeometry width="50" height="50" relative="1" as="geometry">
            <mxPoint x="280" y="620" as="sourcePoint" />
            <mxPoint x="280" y="80" as="targetPoint" />
          </mxGeometry>
        </mxCell>
        <mxCell id="sCo8nd_l6i58dvjA1Hbq-54" value="" style="endArrow=none;dashed=1;html=1;rounded=0;" edge="1" parent="1" source="sCo8nd_l6i58dvjA1Hbq-63">
          <mxGeometry width="50" height="50" relative="1" as="geometry">
            <mxPoint x="900" y="620" as="sourcePoint" />
            <mxPoint x="900" y="80" as="targetPoint" />
          </mxGeometry>
        </mxCell>
        <mxCell id="sCo8nd_l6i58dvjA1Hbq-55" value="" style="endArrow=none;dashed=1;html=1;rounded=0;" edge="1" parent="1">
          <mxGeometry width="50" height="50" relative="1" as="geometry">
            <mxPoint x="900" y="620" as="sourcePoint" />
            <mxPoint x="280" y="620" as="targetPoint" />
          </mxGeometry>
        </mxCell>
        <mxCell id="sCo8nd_l6i58dvjA1Hbq-56" value="" style="endArrow=none;dashed=1;html=1;rounded=0;" edge="1" parent="1">
          <mxGeometry width="50" height="50" relative="1" as="geometry">
            <mxPoint x="900" y="80" as="sourcePoint" />
            <mxPoint x="280" y="80" as="targetPoint" />
          </mxGeometry>
        </mxCell>
        <mxCell id="sCo8nd_l6i58dvjA1Hbq-57" value="&lt;font style=&quot;font-size: 28px;&quot;&gt;Data Lake&lt;/font&gt;" style="text;html=1;align=center;verticalAlign=middle;whiteSpace=wrap;rounded=0;" vertex="1" parent="1">
          <mxGeometry x="440" y="580" width="280" height="30" as="geometry" />
        </mxCell>
        <mxCell id="sCo8nd_l6i58dvjA1Hbq-58" value="" style="html=1;shadow=0;dashed=0;align=center;verticalAlign=middle;shape=mxgraph.arrows2.arrow;dy=0.67;dx=20;notch=0;" vertex="1" parent="1">
          <mxGeometry x="690" y="165" width="52.5" height="20" as="geometry" />
        </mxCell>
        <mxCell id="sCo8nd_l6i58dvjA1Hbq-59" value="" style="html=1;shadow=0;dashed=0;align=center;verticalAlign=middle;shape=mxgraph.arrows2.arrow;dy=0.67;dx=20;notch=0;direction=south;" vertex="1" parent="1">
          <mxGeometry x="787.5" y="198.75" width="20" height="52.5" as="geometry" />
        </mxCell>
        <mxCell id="sCo8nd_l6i58dvjA1Hbq-61" value="" style="html=1;shadow=0;dashed=0;align=center;verticalAlign=middle;shape=mxgraph.arrows2.arrow;dy=0.67;dx=20;notch=0;direction=south;" vertex="1" parent="1">
          <mxGeometry x="635" y="330" width="20" height="50" as="geometry" />
        </mxCell>
        <mxCell id="sCo8nd_l6i58dvjA1Hbq-64" value="" style="endArrow=none;dashed=1;html=1;rounded=0;" edge="1" parent="1" target="sCo8nd_l6i58dvjA1Hbq-63">
          <mxGeometry width="50" height="50" relative="1" as="geometry">
            <mxPoint x="900" y="620" as="sourcePoint" />
            <mxPoint x="900" y="80" as="targetPoint" />
          </mxGeometry>
        </mxCell>
        <mxCell id="sCo8nd_l6i58dvjA1Hbq-63" value="" style="html=1;shadow=0;dashed=0;align=center;verticalAlign=middle;shape=mxgraph.arrows2.arrow;dy=0.67;dx=20;notch=0;" vertex="1" parent="1">
          <mxGeometry x="850" y="272.5" width="102.5" height="20" as="geometry" />
        </mxCell>
        <mxCell id="sCo8nd_l6i58dvjA1Hbq-65" value="" style="shape=flexArrow;endArrow=classic;startArrow=classic;html=1;rounded=0;width=6.25;endSize=4.4125;endWidth=15.9375;startWidth=15.9375;startSize=4.4125;" edge="1" parent="1">
          <mxGeometry width="100" height="100" relative="1" as="geometry">
            <mxPoint x="796.88" y="372.5" as="sourcePoint" />
            <mxPoint x="796.88" y="312.5" as="targetPoint" />
          </mxGeometry>
        </mxCell>
      </root>
    </mxGraphModel>
  </diagram>
</mxfile>
